{"title":"Veer (2010) Upscaled DVD Rip X264 AC3 M-Subs [Dare DEvils]","uid":5508460,"size":2094637681,"categoryP":"video","categoryS":"hd___movies","magnet":"?xt=urn:btih:339f8a5a226bd1bd4e396f80bdfb5d353f2c7691&amp;dn=Veer+%282010%29+Upscaled+DVD+Rip+X264+AC3+M-Subs+%5BDare+DEvils%5D&amp;tr=udp%3A%2F%2Ftracker.openbittorrent.com%3A80&amp;tr=udp%3A%2F%2Fopen.demonii.com%3A1337&amp;tr=udp%3A%2F%2Ftracker.coppersurfer.tk%3A6969&amp;tr=udp%3A%2F%2Fexodus.desync.com%3A6969","seeders":1,"leechers":0,"uploader":"luvwithromio","files":-1,"time":1271944296,"description":"Format                           : AVI\nFormat/Info                      : Audio Video Interleave\nFile size                        : 1.94 GiB\nDuration                         : 2h 42mn\nOverall bit rate                 : 1 702 Kbps\n\nVideo\nID                               : 0\nFormat                           : AVC\nFormat/Info                      : Advanced Video Codec\nFormat profile                   : &lt;a class=&quot;__cf_email__&quot; href=&quot;/cdn-cgi/l/email-protection&quot; data-cfemail=&quot;cd85a4aaa58d81fee3fd&quot;&gt;[email&amp;#160;protected]&lt;/a&gt;&lt;script cf-hash='f9e31' type=&quot;text/javascript&quot;&gt;\n/* &lt;![CDATA[ */!function(){try{var t=&quot;currentScript&quot;in document?document.currentScript:function(){for(var t=document.getElementsByTagName(&quot;script&quot;),e=t.length;e--;)if(t[e].getAttribute(&quot;cf-hash&quot;))return t[e]}();if(t&amp;&amp;t.previousSibling){var e,r,n,i,c=t.previousSibling,a=c.getAttribute(&quot;data-cfemail&quot;);if(a){for(e=&quot;&quot;,r=parseInt(a.substr(0,2),16),n=2;a.length-n;n+=2)i=parseInt(a.substr(n,2),16)^r,e+=String.fromCharCode(i);e=document.createTextNode(e),c.parentNode.replaceChild(e,c)}}}catch(u){}}();/* ]]&gt; */&lt;/script&gt;\nFormat settings, CABAC           : Yes\nFormat settings, ReFrames        : 3 frames\nCodec ID                         : H264\nDuration                         : 2h 42mn\nBit rate                         : 1 508 Kbps\nWidth                            : 896 pixels\nHeight                           : 448 pixels\nDisplay aspect ratio             : 2.000\nFrame rate                       : 23.976 fps\nResolution                       : 8 bits\nColorimetry                      : 4:2:0\nScan type                        : Progressive\nBits/(Pixel*Frame)               : 0.157\nStream size                      : 1.72 GiB (89%)\nWriting library                  : x264 core 68\n\nAudio\nID                               : 1\nFormat                           : AC-3\nFormat/Info                      : Audio Coding 3\nCodec ID                         : 2000\nDuration                         : 2h 36mn\nBit rate mode                    : Constant\nBit rate                         : 192 Kbps\nChannel(s)                       : 6 channels\nChannel positions                : Front: L C R, Surround: L R, LFE\nSampling rate                    : 48.0 KHz\nResolution                       : 16 bits\nStream size                      : 215 MiB (11%)\nAlignment                        : Aligned on interleaves\nInterleave, duration             : 43 ms (1.04 video frame)","torrent":{"xt":"urn:btih:339f8a5a226bd1bd4e396f80bdfb5d353f2c7691","amp;dn":"Veer+%282010%29+Upscaled+DVD+Rip+X264+AC3+M-Subs+%5BDare+DEvils%5D","amp;tr":["udp%3A%2F%2Ftracker.openbittorrent.com%3A80","udp%3A%2F%2Fopen.demonii.com%3A1337","udp%3A%2F%2Ftracker.coppersurfer.tk%3A6969","udp%3A%2F%2Fexodus.desync.com%3A6969"],"infoHash":"339f8a5a226bd1bd4e396f80bdfb5d353f2c7691","infoHashBuffer":{"type":"Buffer","data":[51,159,138,90,34,107,209,189,78,57,111,128,189,251,93,53,63,44,118,145]},"announce":[],"urlList":[]}}